<svg width="34" height="34" viewBox="0 0 34 34" fill="none" xmlns="http://www.w3.org/2000/svg">
<path d="M31.1445 0H2.85547C2.05859 0 1.38346 0.430799 0.830078 1.2924C0.276693 2.154 0 3.14815 0 4.27485V29.7251C0 30.8519 0.276693 31.846 0.830078 32.7076C1.38346 33.5692 2.05859 34 2.85547 34H31.1445C31.9414 34 32.6165 33.5692 33.1699 32.7076C33.7233 31.846 34 30.8519 34 29.7251V4.27485C34 3.14815 33.7233 2.154 33.1699 1.2924C32.6165 0.430799 31.9414 0 31.1445 0ZM28.4883 4.27485L17 14.4152L5.51172 4.27485H28.4883ZM2.85547 29.7251V6.85965L16.2695 18.8889C16.3581 19.0214 16.6016 19.0877 17 19.0877C17.3984 19.0877 17.6419 19.0214 17.7305 18.8889L31.1445 6.85965V29.7251H2.85547Z" fill="black"/>
</svg>
